<?xml version="1.0" encoding="UTF-8" standalone="no"?>
<!--
Autor:        @fitorec
Descripcion:  Imagen logo rockola.flujos para agregar en el favicon
 -->
<svg
   xmlns:dc="http://purl.org/dc/elements/1.1/"
   xmlns:cc="http://creativecommons.org/ns#"
   xmlns:rdf="http://www.w3.org/1999/02/22-rdf-syntax-ns#"
   xmlns:svg="http://www.w3.org/2000/svg"
   xmlns="http://www.w3.org/2000/svg"
   version="1.1"
   width="30"
   height="30"
   id="svg2">
  <defs
     id="defs4" />
  <metadata
     id="metadata7">
    <rdf:RDF>
      <cc:Work
         rdf:about="">
        <dc:format>image/svg+xml</dc:format>
        <dc:type
           rdf:resource="http://purl.org/dc/dcmitype/StillImage" />
        <dc:title></dc:title>
      </cc:Work>
    </rdf:RDF>
  </metadata>
  <path
     d=""
     id="path8460"
     style="fill:#888888;fill-opacity:1;stroke:none" />
  <path
     d=""
     id="path8462"
     style="fill:#888888;fill-opacity:1;stroke:none" />
  <path
     d=""
     id="path8464"
     style="fill:#888888;fill-opacity:1;stroke:none" />
  <rect
     width="30"
     height="30"
     rx="2.5"
     ry="4.4289031"
     x="2.6367189e-07"
     y="-1.7382812e-05"
     id="fondo"
     style="fill:#e6e6e6;fill-opacity:1;stroke:none">
  </rect>
  <path
     d="m 14.78125,10.4375 c -0.60072,0 -1.09375,0.26175 -1.09375,0.59375 0,0.242775 0.27915,0.466386 0.65625,0.5625 -0.01504,0.04947 -0.254871,0.762398 -7.21875,16.15625 l 7.5,2.03125 0.15625,0.0625 0.15625,-0.0625 L 22.25,27.75 22.5,27.6875 22.4375,27.53125 15.21875,11.59375 c 0.392583,-0.09246 0.65625,-0.3135 0.65625,-0.5625 0,-0.332 -0.49303,-0.59375 -1.09375,-0.59375 z m 0,0.40625 c 0.20557,0 0.375,0.0737 0.375,0.1875 0,0.1136 -0.16943,0.21875 -0.375,0.21875 -0.20557,0 -0.375,-0.10495 -0.375,-0.21875 0,-0.1136 0.16943,-0.1875 0.375,-0.1875 z m -0.34375,2.21875 0,0.71875 -0.46875,0.25 c 0.03758,-0.08301 0.215494,-0.454974 0.25,-0.53125 0.11737,-0.2595 0.12962,-0.2404 0.21875,-0.4375 z m 0.71875,0.03125 0.40625,0.9375 -0.40625,-0.25 0,-0.6875 z m -0.71875,1.25 0,0.4375 -0.5,-0.15625 0.5,-0.28125 z m 0.71875,0.03125 0.46875,0.25 -0.46875,0.125 0,-0.375 z M 13.5625,14.96875 14.15625,15.125 13.25,15.59375 c 0.05587,-0.123193 0.261246,-0.511923 0.3125,-0.625 z m 2.4375,0 0.28125,0.625 L 15.40625,15.125 16,14.96875 z m -1.5625,0.5625 0,0.8125 -0.9375,-0.3125 0.9375,-0.5 z m 0.71875,0 0.90625,0.5 -0.90625,0.28125 0,-0.78125 z m -2.21875,0.78125 1.1875,0.375 -1.65625,0.6875 c 0.115227,-0.253926 0.367017,-0.838249 0.46875,-1.0625 z m 3.6875,0.03125 0.46875,1.03125 -1.625,-0.65625 1.15625,-0.375 z m -2.1875,0.75 0,1.3125 -1.875,-0.53125 1.875,-0.78125 z m 0.71875,0 L 17,17.875 l -1.84375,0.53125 0,-1.3125 z m -3.0625,1.09375 2,0.53125 -2.75,1.09375 c 0.228608,-0.503857 0.555864,-1.197203 0.75,-1.625 z m 5.375,0 0.71875,1.625 -2.71875,-1.09375 2,-0.53125 z m -3.03125,0.90625 0,2.09375 -3.03125,-0.90625 3.03125,-1.1875 z m 0.71875,0.03125 3,1.15625 -3,0.875 0,-2.03125 z M 11,20.625 l 3.09375,0.9375 -4.25,1.59375 C 10.317848,22.110189 10.617072,21.469146 11,20.625 z m 7.5625,0 1.15625,2.53125 -4.25,-1.59375 3.09375,-0.9375 z m -4.125,1.25 0,2.96875 -4.28125,-1.3125 4.28125,-1.65625 z m 0.71875,0.03125 4.25,1.625 -4.25,1.28125 0,-2.90625 z m -5.59375,1.90625 4.375,1.3125 -5.59375,1.3125 c 0.6266026,-1.384594 0.7002364,-1.480627 1.21875,-2.625 z m 10.4375,0 1.1875,2.625 L 15.625,25.125 20,23.8125 z M 13.71875,25.625 11.8125,26.15625 8,27.21875 c 0.070184,-0.155143 0.056103,-0.128974 0.125,-0.28125 l 5.59375,-1.3125 z m 2.21875,0.03125 5.46875,1.28125 0.125,0.28125 -5.59375,-1.5625 z m -1.5,0.21875 0,3.40625 -6.15625,-1.6875 6.15625,-1.71875 z m 0.71875,0 6.09375,1.71875 -4.21875,1.15625 -1.875,0.53125 0,-3.40625 z"
     id="antena"
     style="fill:#000000;fill-opacity:1;fill-rule:evenodd;stroke:none">
  </path>
  <path
     d="m 14.625,1.1875 c -1.750463,0.1027482 -3.489689,0.8258125 -4.875,2.15625 -3.16644,3.041 -3.37155,8.2064 -0.46875,11.5 L 10.5625,13.625 C 8.2934,11.0503 8.46228,7.0647 10.9375,4.6875 13.41272,2.3103 17.23088,2.45665 19.5,5.03125 c 0.56169,0.6373 0.95971,1.354 1.21875,2.125 C 20.45788,6.06445 20.19195,4.94455 21,4.09375 20.9247,4.00075 20.86115,3.9031 20.78125,3.8125 19.32985,2.1656 17.37116,1.2705 15.375,1.1875 c -0.24952,-0.010375 -0.499934,-0.014678 -0.75,0 z m 0.125,5.625 c -0.841957,0 -1.672515,0.3102 -2.3125,0.9375 -1.279957,1.2546 -1.279964,3.3078 0,4.5625 l 0.5,-0.5 c -1.000543,-0.9808 -1.000551,-2.5818 0,-3.5625 1.00056,-0.9807 2.62445,-0.9807 3.625,0 0.99071,0.9711 0.97464,2.5759 0,3.5625 L 17.15625,12.25 C 18.4022,10.9888 18.36027,8.9914 17.09375,7.75 16.453765,7.1227 15.591957,6.8125 14.75,6.8125 z M 20,14.75 20.46875,15.15625 C 20.58123,15.04475 20.67669,14.929 20.78125,14.8125 20.51712,14.7965 20.25332,14.785 20,14.75 z"
     id="onda"
     style="fill:#000000;fill-opacity:1;stroke:none">
  </path>
  <g
     transform="scale(1.4574443,0.68613257)"
     id="text3092"
     style="font-size:17.27322197px;font-style:normal;font-weight:normal;line-height:125%;letter-spacing:0px;word-spacing:0px;fill:#aa0000;fill-opacity:1;stroke:none;font-family:Sans">
    <path
       d="m 14.829588,6.4915493 5.246066,1.7037064 0.0253,0.033737 0,10.9560133 c -1.1e-5,0.871532 -0.486382,1.425376 -1.459115,1.661535 l -0.404841,0 c -1.079585,-10e-7 -1.619372,-0.46107 -1.619365,-1.383207 l 0,-0.03374 c -7e-6,-0.708471 0.447004,-1.124558 1.341037,-1.24826 l 0.295196,-0.0253 c 0.438569,1e-6 0.863089,0.163061 1.273563,0.489183 l 0,-8.7293872 -4.158056,-1.4253782 0,8.9486754 c -6e-6,0.770324 -0.382356,1.312923 -1.14705,1.627799 l -0.506051,0.06747 -0.193987,0 c -1.096448,0 -1.644669,-0.435766 -1.644667,-1.3073 l 0,-0.05904 c -2e-6,-0.685979 0.430141,-1.124556 1.290431,-1.315734 l 0.328934,-0.03374 c 0.449818,3e-6 0.87715,0.188366 1.281997,0.565091 l 0,-10.4162248 0.0506,-0.075908"
       id="musica_simbolo">
    </path>
  </g>
</svg>
